<?xml version="1.0" encoding="UTF-8" standalone="no"?>
<!-- Created with Inkscape (http://www.inkscape.org/) -->

<svg
   width="61.909569mm"
   height="67.763557mm"
   viewBox="0 0 61.909569 67.763557"
   version="1.1"
   id="svg1"
   xml:space="preserve"
   xmlns="http://www.w3.org/2000/svg"
   xmlns:svg="http://www.w3.org/2000/svg"><defs
     id="defs1" /><g
     id="layer1"
     transform="translate(-74.045213,-59.635962)"><path
       style="fill:#000000;fill-opacity:1"
       d="m 94.998753,127.05703 c -0.20539,-0.20538 -0.3175,-1.26918 -0.3175,-3.01255 v -2.69506 l -1.05978,-1.55151 c -0.58288,-0.85332 -1.44608,-2.06881 -1.91823,-2.70108 l -0.85845,-1.14958 v -3.61292 -3.61292 h 0.79375 0.79375 l 0.13229,3.21598 c 0.12824,3.11736 0.15847,3.25124 0.98596,4.36563 2.89412,3.89754 2.83936,3.77748 2.98279,6.53959 l 0.13229,2.54755 h 9.657297 9.65728 l 0.17028,-3.04271 c 0.0962,-1.71986 0.37425,-3.67537 0.63945,-4.49792 0.39988,-1.24029 0.48499,-2.75344 0.57628,-10.24567 l 0.10711,-8.790478 -0.66839,-0.66838 c -0.81004,-0.81004 -1.20466,-0.8337 -2.10415,-0.12615 -0.66925,0.52643 -0.69149,0.6393 -0.76329,3.874278 -0.0605,2.72449 -0.15182,3.38107 -0.50101,3.60092 -0.23488,0.14788 -0.62184,0.19412 -0.8599,0.10277 -0.37777,-0.14497 -0.43283,-0.75163 -0.43283,-4.76893 0,-4.255918 -0.0413,-4.655368 -0.54837,-5.299968 -0.65242,-0.82941 -1.80506,-0.92961 -2.45334,-0.21328 -0.37228,0.41137 -0.43788,1.17637 -0.43788,5.106458 0,4.77097 -0.10199,5.2576 -1.10194,5.2576 -0.88067,0 -1.01472,-0.90107 -1.01472,-6.820758 0,-5.28024 -0.0431,-5.83627 -0.48386,-6.23511 -0.63901,-0.5783 -1.70804,-0.55648 -2.25326,0.046 -0.37918,0.41899 -0.43788,1.2548 -0.43788,6.2351 0,3.458498 -0.10919,5.955258 -0.27389,6.263018 -0.31636,0.59112 -1.11522,0.67275 -1.54272,0.15764 -0.20197,-0.24336 -0.31556,-3.6485 -0.36313,-10.885598 l -0.0692,-10.53145 -0.71996,-0.53745 c -0.606497,-0.45274 -0.826237,-0.48902 -1.394367,-0.23016 -0.37093,0.16901 -0.79109,0.61416 -0.93369,0.98922 -0.15497,0.4076 -0.25927,5.33986 -0.25927,12.26026 v 11.578298 l -0.61237,0.57529 c -0.3368,0.31641 -0.86456,0.57528 -1.17279,0.57528 -0.74722,0 -1.04313,-0.94734 -0.48765,-1.56114 0.33975,-0.37542 0.42072,-1.13561 0.42072,-3.94979 0,-3.13212 -0.0536,-3.53847 -0.52916,-4.014068 -0.29104,-0.29104 -0.82682,-0.52916 -1.19063,-0.52916 -0.3638,0 -0.89958,0.23812 -1.19062,0.52916 -0.45826,0.458258 -0.52917,0.881948 -0.52917,3.161858 0,2.2172 -0.072,2.67297 -0.45619,2.88798 -0.28939,0.16195 -0.62798,0.16336 -0.92604,0.004 -0.4053,-0.21692 -0.46972,-0.64092 -0.46886,-3.08642 10e-4,-3.087618 0.33662,-4.070328 1.69338,-4.959298 0.65154,-0.42691 2.78414,-0.59595 3.3223,-0.26335 0.18756,0.11592 0.27499,-2.00257 0.27499,-6.66281 0,-7.66156 0.10487,-8.17337 1.8684,-9.11916 1.7288,-0.92717 3.628087,-0.46491 4.791467,1.16618 0.55128,0.77291 0.6258,1.21362 0.70754,4.1847 l 0.0914,3.32081 1.40989,-0.0135 c 1.65549,-0.0159 2.59931,0.55516 3.36899,2.0383 0.46081,0.88796 0.55535,0.94244 1.20603,0.69505 1.49528,-0.5685 3.49321,0.40024 4.17099,2.02239 0.33823,0.8095 0.40443,0.83942 1.62158,0.73305 1.58097,-0.13818 2.87925,0.51397 3.56362,1.79005 0.44,0.82042 0.48347,1.6794 0.48347,9.553848 0,8.32355 -0.0251,8.75608 -0.66112,11.38121 -0.49066,2.02528 -0.6612,3.44851 -0.66146,5.52019 -2.2e-4,1.81785 -0.11107,2.90208 -0.31784,3.10885 -0.45641,0.45641 -22.191927,0.45641 -22.648327,0 z M 77.086461,78.191132 c -1.280841,-0.59115 -2.086926,-1.42876 -2.633205,-2.73619 -0.321777,-0.77012 -0.409187,-2.07299 -0.408027,-6.0818 8.11e-4,-2.80595 0.124449,-5.54452 0.274751,-6.0857 0.638429,-2.29876 2.679589,-3.63082 5.578355,-3.64043 1.855018,-0.006 2.474498,0.32734 2.300128,1.23825 -0.074,0.38676 -0.45657,0.50841 -2.045431,0.65045 -3.869404,0.34591 -3.992612,0.58795 -3.992612,7.8433 0,5.5098 0.0025,5.53342 0.651322,6.23354 0.358227,0.38654 0.961291,0.82064 1.340141,0.96468 0.37885,0.14404 2.828017,0.26189 5.44259,0.26189 5.36023,0 6.23568,-0.20162 7.11125,-1.63773 0.48542,-0.79619 0.53406,-1.32763 0.53496,-5.84525 10e-4,-6.91558 -0.33984,-7.56378 -4.10888,-7.80566 -1.63775,-0.10511 -1.9883,-0.2097 -2.12277,-0.63341 -0.0886,-0.27913 -0.0176,-0.68039 0.15776,-0.89169 0.47177,-0.56845 3.54603,-0.49971 4.88652,0.10926 1.33418,0.60611 2.7004,2.14123 2.91131,3.27122 0.0888,0.47605 0.12449,3.37499 0.0792,6.44208 -0.0819,5.54495 -0.0864,5.5826 -0.7925,6.64867 -0.42725,0.64504 -1.17199,1.29572 -1.86948,1.63337 -1.06962,0.5178 -1.58788,0.56077 -6.69818,0.55541 -4.818465,-0.005 -5.676514,-0.0693 -6.597198,-0.49426 z m 21.431252,0.12403 c -1.11336,-0.49842 -2.47437,-2.0044 -2.78255,-3.07895 -0.14309,-0.49893 -0.26016,-3.26323 -0.26016,-6.14291 0,-5.58326 0.16046,-6.47957 1.40169,-7.82975 1.31202,-1.42717 2.23774,-1.61073 8.123307,-1.61073 5.88557,0 6.81129,0.18356 8.12331,1.61073 1.24838,1.35797 1.40208,2.23442 1.39588,7.9603 -0.005,4.658 -0.0705,5.506 -0.49581,6.42464 -0.57032,1.23183 -1.69784,2.36121 -2.75675,2.7613 -1.14146,0.43127 -11.750047,0.35253 -12.748917,-0.0946 z m 12.158747,-1.85082 c 1.68619,-0.70453 1.85383,-1.27617 1.95079,-6.65206 0.10052,-5.57293 -0.0975,-6.68474 -1.35001,-7.57809 -0.82376,-0.58756 -1.04095,-0.60861 -6.27724,-0.60861 -5.231367,0 -5.454157,0.0215 -6.274567,0.60671 -1.19846,0.85483 -1.39524,1.86918 -1.39646,7.19849 -0.002,7.26509 0.14447,7.40729 7.613377,7.40793 3.57514,3e-4 5.07116,-0.0974 5.73411,-0.37437 z m 8.92014,1.65914 c -0.67002,-0.33165 -1.43936,-1.01006 -1.85208,-1.63316 -0.70091,-1.0582 -0.70657,-1.10591 -0.78834,-6.64238 -0.0453,-3.06709 -0.01,-5.96603 0.0792,-6.44208 0.21091,-1.12999 1.57713,-2.66511 2.9113,-3.27122 0.91545,-0.41588 1.80293,-0.48182 6.48457,-0.48182 6.05348,0 6.90138,0.18571 8.269,1.81103 1.07867,1.28192 1.25292,2.38052 1.25452,7.90929 0.001,4.00881 -0.0863,5.31168 -0.40803,6.0818 -0.90828,2.17384 -2.67378,3.22127 -5.44508,3.23045 -1.8549,0.006 -2.47418,-0.32718 -2.30051,-1.23825 0.0748,-0.39266 0.44357,-0.50083 2.11163,-0.61946 2.00033,-0.14226 2.56466,-0.37602 3.45789,-1.43234 0.4007,-0.47385 0.45787,-1.22007 0.46303,-6.04384 0.009,-8.00842 0.28353,-7.72592 -7.52029,-7.72592 -7.65395,0 -7.55565,-0.1006 -7.55409,7.73056 8.8e-4,4.4539 0.0543,5.05689 0.51501,5.81245 0.6993,1.14688 1.41539,1.47986 3.55756,1.65427 2.00316,0.16309 2.6905,0.65374 2.03026,1.44929 -0.55098,0.66389 -3.80985,0.57188 -5.26555,-0.14867 z m -38.769766,-7.35844 c -1.350969,-1.4443 -1.419306,-1.63315 -0.811057,-2.2414 0.570399,-0.5704 0.756041,-0.53227 1.778166,0.36517 l 0.88945,0.78094 1.69181,-1.70698 c 0.93049,-0.93884 1.87979,-1.70699 2.10955,-1.70699 0.53516,0 1.05275,0.51671 1.05275,1.05095 0,0.63191 -4.2771,4.76989 -4.93026,4.76989 -0.32228,0 -1.06618,-0.54802 -1.780409,-1.31158 z"
       id="path1" /></g></svg>
